<svg width="50" height="67" viewBox="0 0 50 67" fill="none" xmlns="http://www.w3.org/2000/svg">
<path d="M1.82294 12.5353C1.82294 5.6123 7.40731 0 14.296 0H35.6981C42.5867 0 48.1711 5.6123 48.1711 12.5353C48.1711 16.9191 45.932 20.7773 42.5405 23.0178C45.932 25.2583 48.1711 29.1165 48.1711 33.5003C48.1711 40.4234 42.5867 46.0357 35.6981 46.0357H35.4272C32.1978 46.0357 29.255 44.8022 27.0399 42.7785V54.3285C27.0399 61.3439 21.3095 67 14.3632 67C7.49169 67 1.82294 61.4048 1.82294 54.4646C1.82294 50.0811 4.06187 46.2231 7.45315 43.9825C4.06174 41.7419 1.82294 37.8838 1.82294 33.5003C1.82294 29.1165 4.062 25.2583 7.45354 23.0178C4.062 20.7773 1.82294 16.9191 1.82294 12.5353ZM22.9542 25.071H14.296C9.66369 25.071 5.90861 28.8449 5.90861 33.5003C5.90861 38.1377 9.63479 41.9004 14.2423 41.9294L14.296 41.9293H22.9542V25.071ZM27.0399 33.5003C27.0399 38.1556 30.7949 41.9296 35.4272 41.9296H35.6981C40.3304 41.9296 44.0854 38.1556 44.0854 33.5003C44.0854 28.8449 40.3304 25.071 35.6981 25.071H35.4272C30.7949 25.071 27.0399 28.8449 27.0399 33.5003ZM14.296 46.0357L14.2423 46.0355C9.63479 46.0645 5.90861 49.8272 5.90861 54.4646C5.90861 59.1029 9.71395 62.8939 14.3632 62.8939C19.0874 62.8939 22.9542 59.0419 22.9542 54.3285V46.0357H14.296ZM14.296 4.10611C9.66369 4.10611 5.90861 7.88009 5.90861 12.5353C5.90861 17.1907 9.66382 20.9646 14.296 20.9646H22.9542V4.10597L14.296 4.10611ZM27.0399 20.9646H35.6981C40.3304 20.9646 44.0854 17.1907 44.0854 12.5353C44.0854 7.87996 40.3304 4.10611 35.6981 4.10611H27.0399V20.9646Z" fill="#40B5AD"/>
</svg>
