<svg width="50" height="57" viewBox="0 0 50 57" fill="none" xmlns="http://www.w3.org/2000/svg">
<g clip-path="url(#clip0_26_51)">
<path d="M24.6429 13.7268C24.7545 13.7825 24.8437 13.916 24.9777 13.916C25.1004 13.916 25.2902 13.8715 25.3013 13.7491C25.3237 13.5932 25.0893 13.493 24.9442 13.4262C24.7545 13.3483 24.5089 13.3149 24.3304 13.4151C24.2857 13.4373 24.2411 13.493 24.2634 13.5375C24.2969 13.6823 24.5201 13.66 24.6429 13.7268ZM22.1987 13.916C22.3326 13.916 22.4219 13.7825 22.5335 13.7268C22.6562 13.66 22.8795 13.6823 22.9241 13.5487C22.9464 13.5041 22.9018 13.4485 22.8571 13.4262C22.6786 13.326 22.433 13.3594 22.2433 13.4373C22.0982 13.5041 21.8638 13.6043 21.8862 13.7602C21.8973 13.8715 22.087 13.9272 22.1987 13.916ZM46.875 44.9543C46.4732 44.509 46.2835 43.6629 46.0714 42.7612C45.8705 41.8594 45.6362 40.8909 44.8995 40.2674C44.7545 40.145 44.6094 40.0336 44.4531 39.9446C44.308 39.8555 44.1518 39.7776 43.9955 39.7219C45.0223 36.6826 44.6205 33.6545 43.5826 30.9159C42.3103 27.5649 40.0893 24.6369 38.3929 22.633C36.4844 20.2395 34.6317 17.9684 34.6652 14.6174C34.721 9.50745 35.2344 0.011165 26.2054 3.21933e-05C14.7768 -0.0222334 17.6339 11.5114 17.5112 15.0516C17.3214 17.6567 16.7969 19.7051 15 22.2545C12.8906 24.7594 9.92187 28.8006 8.51562 33.02C7.84598 35.0127 7.53348 37.0389 7.82366 38.9537C7.09821 39.5994 6.55134 40.5903 5.97098 41.2026C5.50223 41.6813 4.82143 41.8594 4.07366 42.1266C3.32589 42.3938 2.51116 42.7946 2.00893 43.7409C1.77455 44.175 1.69643 44.6426 1.69643 45.1213C1.69643 45.5555 1.76339 46.0008 1.83035 46.435C1.96428 47.3368 2.10937 48.1828 1.91964 48.7506C1.33928 50.3537 1.26116 51.467 1.6741 52.2797C2.09821 53.0924 2.94643 53.4487 3.91741 53.6491C5.84821 54.0498 8.47098 53.9496 10.5357 55.0407C12.7455 56.1985 14.9888 56.6104 16.7746 56.1985C18.0692 55.909 19.1295 55.1297 19.6652 53.9496C21.0603 53.9385 22.6004 53.3485 25.0558 53.2149C26.7187 53.0813 28.8058 53.8049 31.2054 53.6713C31.2723 53.9274 31.3616 54.1834 31.4844 54.4172V54.4284C32.4107 56.2875 34.1406 57.1336 35.9821 56.9889C37.8348 56.8442 39.7879 55.7643 41.3728 53.8828C42.8906 52.0571 45.3906 51.3 47.0536 50.2981C47.8795 49.7971 48.5491 49.1737 48.6049 48.2608C48.6495 47.3479 48.1138 46.3348 46.875 44.9543ZM24.9665 9.71898C26.0603 7.24749 28.7835 7.29202 29.8772 9.67445C30.6027 11.2553 30.279 13.1145 29.3973 14.1721C29.2187 14.083 28.7388 13.8826 27.9911 13.6266C28.1138 13.493 28.337 13.326 28.4263 13.1145C28.962 11.8008 28.404 10.1086 27.4107 10.0752C26.596 10.0196 25.8594 11.2776 26.0937 12.6358C25.6362 12.4131 25.0446 12.2461 24.6429 12.1459C24.5312 11.3778 24.6094 10.5205 24.9665 9.71898ZM20.4241 8.4387C21.5513 8.4387 22.7455 10.0196 22.5558 12.1682C22.1652 12.2795 21.7634 12.4465 21.4174 12.6803C21.5513 11.6895 21.0491 10.4426 20.346 10.4983C19.4085 10.5762 19.2522 12.8584 20.1451 13.6266C20.2567 13.7157 20.3571 13.6043 19.4866 14.2389C17.7455 12.6135 18.3147 8.4387 20.4241 8.4387ZM18.9062 15.1963C19.5982 14.6842 20.4241 14.083 20.4799 14.0274C21.0045 13.5375 21.9866 12.4465 23.5937 12.4465C24.3862 12.4465 25.3348 12.7026 26.4844 13.4373C27.1875 13.8938 27.7455 13.9272 29.0067 14.4727C29.9442 14.8623 30.5357 15.5526 30.1786 16.4989C29.8884 17.2893 28.9509 18.102 27.6451 18.5139C26.4062 18.9147 25.4353 20.2951 23.3817 20.1727C22.9464 20.1504 22.6004 20.0614 22.3103 19.9389C21.4174 19.5493 20.9487 18.7811 20.0781 18.269C19.1183 17.7346 18.6049 17.1112 18.4375 16.5657C18.2812 16.0201 18.4375 15.5637 18.9062 15.1963ZM19.2745 52.3799C18.9732 56.2875 14.375 56.2096 10.8705 54.3838C7.53348 52.6248 3.21428 53.6602 2.33259 51.9457C2.06473 51.4225 2.06473 50.5319 2.62276 49.0067V48.9844C2.89062 48.1383 2.68973 47.2032 2.5558 46.3237C2.42187 45.4553 2.35491 44.6537 2.65625 44.0971C3.04687 43.3512 3.60491 43.084 4.30803 42.8391C5.45759 42.4272 5.625 42.4606 6.49553 41.7369C7.10937 41.1024 7.5558 40.3008 8.09151 39.733C8.66071 39.1207 9.20759 38.8313 10.067 38.9649C10.971 39.0985 11.7522 39.7219 12.5112 40.7461L14.6987 44.7094C15.7589 46.9248 19.5089 50.0977 19.2745 52.3799ZM19.1183 49.4965C18.6607 48.7618 18.0469 47.9825 17.5112 47.3145C18.3036 47.3145 19.096 47.0696 19.375 46.3237C19.6317 45.6334 19.375 44.6649 18.5491 43.5516C17.0424 41.5254 14.2746 39.9334 14.2746 39.9334C12.7679 38.9983 11.9196 37.8516 11.529 36.6047C11.1384 35.3578 11.1942 34.0108 11.4955 32.686C12.0759 30.1366 13.5714 27.6539 14.5312 26.0953C14.7879 25.9061 14.6205 26.4516 13.5603 28.411C12.6116 30.2034 10.8371 34.3448 13.2701 37.5844C13.3371 35.2799 13.8839 32.9309 14.8103 30.7377C16.1495 27.6873 18.9732 22.3993 19.1964 18.191C19.3192 18.2801 19.7098 18.5473 19.8884 18.6475C20.4018 18.9481 20.7924 19.3934 21.2946 19.7942C22.6786 20.9075 24.4754 20.8184 26.0268 19.9278C26.7187 19.5381 27.2768 19.0928 27.8013 18.9258C28.9062 18.5807 29.7879 17.9684 30.2902 17.2559C31.1495 20.6403 33.1585 25.5276 34.442 27.91C35.1228 29.1791 36.4844 31.8621 37.0759 35.1018C37.4442 35.0907 37.8571 35.1463 38.2924 35.2576C39.8326 31.2832 36.9866 26.9971 35.692 25.8059C35.1674 25.2938 35.1451 25.0711 35.4018 25.0823C36.808 26.3291 38.6607 28.834 39.3304 31.6506C39.6429 32.942 39.6987 34.2891 39.375 35.625C41.2054 36.3821 43.3817 37.6178 42.8013 39.4992C42.5558 39.4881 42.4442 39.4992 42.3326 39.4992C42.6897 38.3748 41.8973 37.5399 39.7879 36.5936C37.6004 35.6362 35.7701 35.6362 35.5134 37.9852C34.1629 38.4528 33.471 39.6217 33.125 41.0244C32.8125 42.2713 32.7232 43.7742 32.6339 45.4664C32.5781 46.3237 32.2321 47.4703 31.875 48.695C28.2924 51.2444 23.3147 52.3576 19.1183 49.4965ZM47.846 48.2162C47.7455 50.0866 43.2478 50.4317 40.7924 53.393C39.3192 55.1409 37.5112 56.1094 35.9263 56.2319C34.3415 56.3543 32.9687 55.6975 32.1652 54.0832C31.6406 52.8475 31.8973 51.5116 32.2879 50.042C32.7009 48.4612 33.3147 46.8358 33.3929 45.5221C33.4821 43.8299 33.5826 42.3493 33.8616 41.2137C34.1518 40.067 34.5982 39.2989 35.3906 38.8647C35.4241 38.8424 35.4687 38.8313 35.5022 38.809C35.5915 40.2785 36.317 41.7703 37.6004 42.0932C39.0067 42.4606 41.0268 41.2582 41.8862 40.2785C42.8906 40.2451 43.6384 40.1784 44.4085 40.8463C45.5134 41.7926 45.2009 44.2196 46.317 45.4776C47.5 46.769 47.8795 47.6485 47.846 48.2162ZM19.3415 16.5545C19.5647 16.766 19.8661 17.0555 20.2344 17.345C20.971 17.9239 21.9978 18.525 23.2812 18.525C24.5759 18.525 25.7924 17.8682 26.8304 17.3227C27.3772 17.0332 28.0469 16.5434 28.4821 16.1649C28.9174 15.7864 29.1406 15.4635 28.8281 15.4301C28.5156 15.3967 28.5379 15.7196 28.1585 15.9979C27.6674 16.3541 27.0759 16.8217 26.6071 17.0889C25.7812 17.5565 24.4308 18.2244 23.2701 18.2244C22.1094 18.2244 21.183 17.6901 20.4911 17.1446C20.1451 16.8662 19.8549 16.5879 19.6317 16.3764C19.4643 16.2205 19.4196 15.8643 19.1518 15.8309C18.9955 15.8198 18.9509 16.2428 19.3415 16.5545Z" fill="#40B5AD"/>
</g>
<defs>
<clipPath id="clip0_26_51">
<rect width="50" height="57" fill="white"/>
</clipPath>
</defs>
</svg>
