<svg width="50" height="57" viewBox="0 0 50 57" fill="none" xmlns="http://www.w3.org/2000/svg">
<g clip-path="url(#clip0_26_49)">
<path d="M49.0569 26.279L27.2322 4.50322C26.628 3.90109 25.8089 3.56287 24.9548 3.56287C24.1008 3.56287 23.2817 3.90109 22.6775 4.50322L18.1395 9.02648L23.8895 14.7621C26.9096 13.7446 29.769 16.6291 28.7322 19.6249L34.2746 25.1535C38.0949 23.8398 41.1027 28.6046 38.2333 31.4647C35.2768 34.4137 30.3973 31.1451 31.9833 27.3077L26.8103 22.1543V35.7196C29.634 37.1157 29.2947 40.3787 27.8237 41.8427C27.105 42.5591 26.1305 42.9616 25.1144 42.9616C24.0983 42.9616 23.1238 42.5591 22.4052 41.8427C20.4442 39.8833 21.1697 36.6203 23.6607 35.6083V21.9149C21.3393 20.9675 20.9152 18.4927 21.5804 16.9052L15.9119 11.2441L0.943108 26.1777C0.3392 26.7802 -6.10352e-05 27.5973 -6.10352e-05 28.4493C-6.10352e-05 29.3013 0.3392 30.1185 0.943108 30.721L22.7746 52.4968C23.3786 53.0988 24.1975 53.437 25.0514 53.437C25.9052 53.437 26.7242 53.0988 27.3282 52.4968L49.0569 30.8223C49.6609 30.2198 50.0001 29.4027 50.0001 28.5506C50.0001 27.6986 49.6609 26.8815 49.0569 26.279Z" fill="#40B5AD"/>
</g>
<defs>
<clipPath id="clip0_26_49">
<rect width="50" height="57" fill="white"/>
</clipPath>
</defs>
</svg>
