<svg width="50" height="57" viewBox="0 0 50 57" fill="none" xmlns="http://www.w3.org/2000/svg">
<g clip-path="url(#clip0_16_20)">
<path d="M25.0112 15.6973C17.913 15.6973 12.1875 21.4084 12.1875 28.4889C12.1875 35.5693 17.913 41.2805 25.0112 41.2805C32.1094 41.2805 37.8348 35.5693 37.8348 28.4889C37.8348 21.4084 32.1094 15.6973 25.0112 15.6973ZM25.0112 36.8051C20.4241 36.8051 16.6741 33.0756 16.6741 28.4889C16.6741 23.9022 20.413 20.1727 25.0112 20.1727C29.6094 20.1727 33.3482 23.9022 33.3482 28.4889C33.3482 33.0756 29.5982 36.8051 25.0112 36.8051ZM41.3505 15.174C41.3505 16.8328 40.0112 18.1576 38.3594 18.1576C36.6964 18.1576 35.3683 16.8217 35.3683 15.174C35.3683 13.5264 36.7076 12.1904 38.3594 12.1904C40.0112 12.1904 41.3505 13.5264 41.3505 15.174ZM49.8438 18.2022C49.654 14.2055 48.7388 10.6652 45.8036 7.74845C42.8795 4.83165 39.3304 3.91876 35.3237 3.71837C31.1942 3.48458 18.817 3.48458 14.6875 3.71837C10.692 3.90763 7.14287 4.82052 4.2076 7.73732C1.27233 10.6541 0.368312 14.1943 0.167419 18.191C-0.0669556 22.3102 -0.0669556 34.6565 0.167419 38.7756C0.357152 42.7723 1.27233 46.3125 4.2076 49.2293C7.14287 52.1461 10.6808 53.059 14.6875 53.2594C18.817 53.4932 31.1942 53.4932 35.3237 53.2594C39.3304 53.0701 42.8795 52.1572 45.8036 49.2293C48.7277 46.3125 49.6429 42.7723 49.8438 38.7756C50.0781 34.6565 50.0781 22.3213 49.8438 18.2022ZM44.5089 43.1953C43.6384 45.3774 41.9531 47.0584 39.7545 47.9379C36.4621 49.2404 28.6496 48.9399 25.0112 48.9399C21.3728 48.9399 13.5491 49.2293 10.2679 47.9379C8.08037 47.0695 6.3951 45.3885 5.5134 43.1953C4.2076 39.9111 4.50894 32.1182 4.50894 28.4889C4.50894 24.8596 4.21876 17.0555 5.5134 13.7824C6.38394 11.6004 8.0692 9.91935 10.2679 9.03986C13.5603 7.73732 21.3728 8.0379 25.0112 8.0379C28.6496 8.0379 36.4732 7.74845 39.7545 9.03986C41.942 9.90822 43.6272 11.5893 44.5089 13.7824C45.8147 17.0666 45.5134 24.8596 45.5134 28.4889C45.5134 32.1182 45.8147 39.9223 44.5089 43.1953Z" fill="#40B5AD"/>
</g>
<defs>
<clipPath id="clip0_16_20">
<rect width="50" height="57" fill="white"/>
</clipPath>
</defs>
</svg>
