<svg width="55" height="57" viewBox="0 0 55 57" fill="none" xmlns="http://www.w3.org/2000/svg">
<path d="M18.3962 44.2418C18.3962 44.4645 18.1411 44.6426 17.8196 44.6426C17.4536 44.676 17.1986 44.4979 17.1986 44.2418C17.1986 44.0191 17.4536 43.841 17.7752 43.841C18.1079 43.8076 18.3962 43.9857 18.3962 44.2418ZM14.9476 43.7408C14.87 43.9635 15.0917 44.2195 15.4244 44.2863C15.7127 44.3977 16.0454 44.2863 16.1119 44.0637C16.1784 43.841 15.9677 43.585 15.6351 43.4848C15.3468 43.4068 15.0252 43.5182 14.9476 43.7408ZM19.8488 43.5516C19.5272 43.6295 19.3054 43.841 19.3387 44.0971C19.372 44.3197 19.6603 44.4645 19.9929 44.3865C20.3145 44.3086 20.5363 44.0971 20.503 43.8744C20.4698 43.6629 20.1704 43.5182 19.8488 43.5516ZM27.1452 0.890625C11.7651 0.890625 0 12.6135 0 28.0547C0 40.401 7.73992 50.966 18.7954 54.6844C20.2147 54.9404 20.7137 54.0609 20.7137 53.3373C20.7137 52.6471 20.6804 48.8396 20.6804 46.5018C20.6804 46.5018 12.9183 48.1717 11.2883 43.1842C11.2883 43.1842 10.0242 39.9445 8.20565 39.1096C8.20565 39.1096 5.66633 37.3617 8.38306 37.3951C8.38306 37.3951 11.1442 37.6178 12.6633 40.2674C15.0917 44.5646 19.1613 43.3289 20.747 42.5941C21.002 40.8129 21.7228 39.5771 22.5212 38.8424C16.3226 38.1521 10.0685 37.2504 10.0685 26.5406C10.0685 23.4791 10.9113 21.9428 12.6855 19.9834C12.3972 19.2598 11.4546 16.2762 12.9738 12.4242C15.2913 11.7006 20.625 15.4301 20.625 15.4301C22.8427 14.8066 25.2268 14.4838 27.5887 14.4838C29.9506 14.4838 32.3347 14.8066 34.5524 15.4301C34.5524 15.4301 39.8861 11.6895 42.2036 12.4242C43.7228 16.2873 42.7802 19.2598 42.4919 19.9834C44.2661 21.9539 45.3528 23.4902 45.3528 26.5406C45.3528 37.2838 38.8216 38.141 32.623 38.8424C33.6431 39.7219 34.5081 41.3918 34.5081 44.008C34.5081 47.7598 34.4748 52.4021 34.4748 53.315C34.4748 54.0387 34.9849 54.9182 36.3931 54.6621C47.4819 50.966 55 40.401 55 28.0547C55 12.6135 42.5252 0.890625 27.1452 0.890625ZM10.7782 39.2877C10.6341 39.399 10.6673 39.6551 10.8558 39.8666C11.0333 40.0447 11.2883 40.1227 11.4325 39.9779C11.5766 39.8666 11.5433 39.6105 11.3548 39.399C11.1774 39.2209 10.9224 39.143 10.7782 39.2877ZM9.58065 38.3859C9.50302 38.5307 9.61391 38.7088 9.83569 38.8201C10.0131 38.9314 10.2349 38.898 10.3125 38.7422C10.3901 38.5975 10.2792 38.4193 10.0575 38.308C9.83569 38.2412 9.65827 38.2746 9.58065 38.3859ZM13.1734 42.3492C12.996 42.4939 13.0625 42.8279 13.3175 43.0395C13.5726 43.2955 13.8942 43.3289 14.0383 43.1508C14.1825 43.0061 14.1159 42.6721 13.8942 42.4605C13.6502 42.2045 13.3175 42.1711 13.1734 42.3492ZM11.9093 40.7127C11.7319 40.824 11.7319 41.1135 11.9093 41.3695C12.0867 41.6256 12.3861 41.7369 12.5302 41.6256C12.7077 41.4809 12.7077 41.1914 12.5302 40.9354C12.375 40.6793 12.0867 40.568 11.9093 40.7127Z" fill="#40B5AD"/>
</svg>
